<?xml version="1.0" standalone="no"?>
<!DOCTYPE svg PUBLIC "-//W3C//DTD SVG 20010904//EN"
 "http://www.w3.org/TR/2001/REC-SVG-20010904/DTD/svg10.dtd">
<svg version="1.0" xmlns="http://www.w3.org/2000/svg"
 width="512.000000pt" height="512.000000pt" viewBox="0 0 512.000000 512.000000"
 preserveAspectRatio="xMidYMid meet">

<g transform="translate(0.000000,512.000000) scale(0.100000,-0.100000)"
fill="#000000" stroke="none">
<path d="M0 2560 l0 -2560 2560 0 2560 0 0 2560 0 2560 -2560 0 -2560 0 0
-2560z m4200 1286 l0 -145 -617 -3 c-599 -4 -621 -4 -728 -27 -573 -120 -1006
-484 -1170 -987 -57 -174 -70 -256 -69 -464 1 -200 16 -300 69 -466 33 -100
110 -262 167 -351 24 -37 47 -75 52 -83 4 -8 -45 38 -108 104 -206 210 -320
419 -377 689 -28 131 -31 348 -6 483 73 402 308 755 661 994 79 53 241 140
295 158 67 23 23 21 -77 -3 -573 -139 -1021 -599 -1137 -1168 -52 -256 -43
-588 23 -859 11 -43 18 -78 16 -78 -8 0 -100 160 -143 250 -107 225 -149 477
-121 725 20 174 78 358 165 523 144 272 414 531 704 677 163 81 383 146 565
165 39 4 468 8 954 9 l882 1 0 -144z m-990 -1161 c0 -938 1 -925 -71 -1071
-71 -146 -206 -266 -362 -323 -64 -23 -86 -26 -207 -26 -114 1 -145 4 -197 23
-250 89 -429 325 -436 574 l-2 73 133 3 132 3 0 -44 c0 -167 116 -329 268
-373 78 -23 180 -15 253 19 67 32 150 116 182 184 l22 48 5 821 c5 804 5 822
25 845 46 54 105 77 198 78 l57 1 0 -835z m-565 -322 c8 -7 17 -13 20 -13 26
0 75 -96 75 -146 0 -31 -2 -33 -37 -36 -21 -2 -38 -7 -38 -13 0 -5 17 -11 38
-13 20 -2 37 -7 37 -12 0 -5 -17 -10 -37 -12 -21 -2 -38 -7 -38 -13 0 -5 17
-11 38 -13 20 -2 37 -7 37 -12 0 -5 -17 -10 -37 -12 -21 -2 -38 -7 -38 -13 0
-5 17 -11 38 -13 24 -2 37 -8 37 -18 0 -12 -29 -14 -170 -14 -141 0 -170 2
-170 14 0 10 13 16 35 18 20 2 35 8 35 13 0 6 -15 11 -35 13 -19 2 -35 7 -35
12 0 5 16 10 35 12 48 4 49 22 3 26 -21 2 -38 7 -38 12 0 5 17 10 38 12 49 4
48 22 -2 26 l-39 3 6 50 c12 101 79 161 176 157 29 -1 59 -7 66 -15z m75 -449
c0 -11 -141 -379 -148 -386 -4 -4 -36 68 -71 160 -36 92 -70 182 -78 200 l-13
32 155 0 c85 0 155 -3 155 -6z"/>
<path d="M2540 2270 c-22 -22 -17 -45 11 -61 14 -7 23 -5 39 11 16 16 18 25
11 39 -16 28 -39 33 -61 11z"/>
</g>
</svg>
